<mxfile host="app.diagrams.net" agent="Mozilla/5.0 (X11; CrOS x86_64 14541.0.0) AppleWebKit/537.36 (KHTML, like Gecko) Chrome/129.0.0.0 Safari/537.36" version="24.8.3">
  <diagram name="Page-1" id="2cc2dc42-3aac-f2a9-1cec-7a8b7cbee084">
    <mxGraphModel dx="2487" dy="1697" grid="1" gridSize="10" guides="1" tooltips="1" connect="1" arrows="1" fold="1" page="1" pageScale="1" pageWidth="1100" pageHeight="850" background="none" math="0" shadow="0">
      <root>
        <mxCell id="0" />
        <mxCell id="1" parent="0" />
        <mxCell id="7026571954dc6520-1" value="" style="strokeWidth=1;shadow=0;dashed=0;align=center;html=1;shape=mxgraph.mockup.containers.browserWindow;rSize=0;strokeColor=#666666;mainText=,;recursiveResize=0;rounded=0;labelBackgroundColor=none;fontFamily=Verdana;fontSize=12" parent="1" vertex="1">
          <mxGeometry x="-130" y="-20" width="1050" height="1310" as="geometry" />
        </mxCell>
        <mxCell id="7026571954dc6520-2" value="Page 1" style="strokeWidth=1;shadow=0;dashed=0;align=center;html=1;shape=mxgraph.mockup.containers.anchor;fontSize=17;fontColor=#666666;align=left;" parent="7026571954dc6520-1" vertex="1">
          <mxGeometry x="60" y="12" width="110" height="26" as="geometry" />
        </mxCell>
        <mxCell id="7026571954dc6520-3" value="https://www.wlhs.net" style="strokeWidth=1;shadow=0;dashed=0;align=center;html=1;shape=mxgraph.mockup.containers.anchor;rSize=0;fontSize=17;fontColor=#666666;align=left;" parent="7026571954dc6520-1" vertex="1">
          <mxGeometry x="130" y="60" width="250" height="26" as="geometry" />
        </mxCell>
        <mxCell id="7026571954dc6520-15" value="" style="verticalLabelPosition=bottom;shadow=0;dashed=0;align=center;html=1;verticalAlign=top;strokeWidth=1;shape=mxgraph.mockup.markup.line;strokeColor=#999999;rounded=0;labelBackgroundColor=none;fillColor=#ffffff;fontFamily=Verdana;fontSize=12;fontColor=#000000;" parent="7026571954dc6520-1" vertex="1">
          <mxGeometry y="160" width="1050" height="20" as="geometry" />
        </mxCell>
        <mxCell id="7026571954dc6520-21" value="" style="verticalLabelPosition=bottom;shadow=0;dashed=0;align=center;html=1;verticalAlign=top;strokeWidth=1;shape=mxgraph.mockup.markup.line;strokeColor=#999999;rounded=0;labelBackgroundColor=none;fillColor=#ffffff;fontFamily=Verdana;fontSize=12;fontColor=#000000;" parent="7026571954dc6520-1" vertex="1">
          <mxGeometry y="580" width="1050" height="20" as="geometry" />
        </mxCell>
        <mxCell id="-QWmshcvh4NoUz7wuo3l-2" value="" style="rounded=0;whiteSpace=wrap;html=1;" vertex="1" parent="7026571954dc6520-1">
          <mxGeometry x="20" y="190" width="160" height="70" as="geometry" />
        </mxCell>
        <mxCell id="-QWmshcvh4NoUz7wuo3l-5" value="&lt;font style=&quot;font-size: 17px;&quot;&gt;About Us&lt;/font&gt;" style="text;html=1;align=center;verticalAlign=middle;whiteSpace=wrap;rounded=0;fontSize=20;" vertex="1" parent="7026571954dc6520-1">
          <mxGeometry x="200" y="210" width="100" height="30" as="geometry" />
        </mxCell>
        <mxCell id="-QWmshcvh4NoUz7wuo3l-7" value="&lt;font style=&quot;font-size: 17px;&quot;&gt;Academics&lt;/font&gt;" style="text;html=1;align=center;verticalAlign=middle;whiteSpace=wrap;rounded=0;fontSize=20;" vertex="1" parent="7026571954dc6520-1">
          <mxGeometry x="430" y="210" width="100" height="30" as="geometry" />
        </mxCell>
        <mxCell id="-QWmshcvh4NoUz7wuo3l-8" value="&lt;font style=&quot;font-size: 17px;&quot;&gt;Athletics&lt;/font&gt;" style="text;html=1;align=center;verticalAlign=middle;whiteSpace=wrap;rounded=0;fontSize=20;" vertex="1" parent="7026571954dc6520-1">
          <mxGeometry x="540" y="210" width="100" height="30" as="geometry" />
        </mxCell>
        <mxCell id="-QWmshcvh4NoUz7wuo3l-12" value="&lt;font style=&quot;font-size: 17px;&quot;&gt;Giving&lt;/font&gt;" style="text;html=1;align=center;verticalAlign=middle;whiteSpace=wrap;rounded=0;fontSize=20;" vertex="1" parent="7026571954dc6520-1">
          <mxGeometry x="820" y="210" width="100" height="30" as="geometry" />
        </mxCell>
        <mxCell id="-QWmshcvh4NoUz7wuo3l-11" value="&lt;font style=&quot;font-size: 17px;&quot;&gt;Student Life&lt;/font&gt;" style="text;html=1;align=center;verticalAlign=middle;whiteSpace=wrap;rounded=0;fontSize=20;" vertex="1" parent="7026571954dc6520-1">
          <mxGeometry x="720" y="210" width="100" height="30" as="geometry" />
        </mxCell>
        <mxCell id="-QWmshcvh4NoUz7wuo3l-10" value="&lt;font style=&quot;font-size: 17px;&quot;&gt;Arts&lt;/font&gt;" style="text;html=1;align=center;verticalAlign=middle;whiteSpace=wrap;rounded=0;fontSize=20;" vertex="1" parent="7026571954dc6520-1">
          <mxGeometry x="630" y="210" width="100" height="30" as="geometry" />
        </mxCell>
        <mxCell id="-QWmshcvh4NoUz7wuo3l-9" value="&lt;font style=&quot;font-size: 17px;&quot;&gt;Admissions&lt;/font&gt;" style="text;html=1;align=center;verticalAlign=middle;whiteSpace=wrap;rounded=0;fontSize=20;" vertex="1" parent="7026571954dc6520-1">
          <mxGeometry x="310" y="210" width="100" height="30" as="geometry" />
        </mxCell>
        <mxCell id="-QWmshcvh4NoUz7wuo3l-15" value="" style="html=1;verticalLabelPosition=bottom;align=center;labelBackgroundColor=#ffffff;verticalAlign=top;strokeWidth=2;strokeColor=#0080F0;shadow=0;dashed=0;shape=mxgraph.ios7.icons.looking_glass;" vertex="1" parent="7026571954dc6520-1">
          <mxGeometry x="940" y="210" width="40" height="40" as="geometry" />
        </mxCell>
        <mxCell id="-QWmshcvh4NoUz7wuo3l-16" value="" style="verticalLabelPosition=bottom;shadow=0;dashed=0;align=center;html=1;verticalAlign=top;strokeWidth=1;shape=mxgraph.mockup.markup.line;strokeColor=#999999;rounded=0;labelBackgroundColor=none;fillColor=#ffffff;fontFamily=Verdana;fontSize=12;fontColor=#000000;" vertex="1" parent="7026571954dc6520-1">
          <mxGeometry y="270" width="1050" height="20" as="geometry" />
        </mxCell>
        <mxCell id="-QWmshcvh4NoUz7wuo3l-33" value="&lt;font style=&quot;font-size: 17px;&quot;&gt;Parents/Student&lt;/font&gt;&lt;span style=&quot;color: rgba(0, 0, 0, 0); font-family: monospace; font-size: 0px; text-align: start; text-wrap: nowrap;&quot;&gt;%3CmxGraphModel%3E%3Croot%3E%3CmxCell%20id%3D%220%22%2F%3E%3CmxCell%20id%3D%221%22%20parent%3D%220%22%2F%3E%3CmxCell%20id%3D%222%22%20value%3D%22%26lt%3Bfont%20style%3D%26quot%3Bfont-size%3A%2017px%3B%26quot%3B%26gt%3BAbout%20Us%26lt%3B%2Ffont%26gt%3B%22%20style%3D%22text%3Bhtml%3D1%3Balign%3Dcenter%3BverticalAlign%3Dmiddle%3BwhiteSpace%3Dwrap%3Brounded%3D0%3BfontSize%3D20%3B%22%20vertex%3D%221%22%20parent%3D%221%22%3E%3CmxGeometry%20x%3D%22200%22%20y%3D%22260%22%20width%3D%22100%22%20height%3D%2230%22%20as%3D%22geometry%22%2F%3E%3C%2FmxCell%3E%3C%2Froot%3E%3C%2FmxGraphModel%3E&lt;/span&gt;" style="text;html=1;align=center;verticalAlign=middle;whiteSpace=wrap;rounded=0;fontSize=20;" vertex="1" parent="7026571954dc6520-1">
          <mxGeometry x="20" y="130" width="100" height="30" as="geometry" />
        </mxCell>
        <mxCell id="-QWmshcvh4NoUz7wuo3l-34" value="&lt;font style=&quot;font-size: 17px;&quot;&gt;School Calendar&lt;/font&gt;" style="text;html=1;align=center;verticalAlign=middle;whiteSpace=wrap;rounded=0;fontSize=20;" vertex="1" parent="7026571954dc6520-1">
          <mxGeometry x="140" y="130" width="140" height="30" as="geometry" />
        </mxCell>
        <mxCell id="-QWmshcvh4NoUz7wuo3l-36" value="&lt;font style=&quot;font-size: 17px;&quot;&gt;International&lt;/font&gt;" style="text;html=1;align=center;verticalAlign=middle;whiteSpace=wrap;rounded=0;fontSize=20;" vertex="1" parent="7026571954dc6520-1">
          <mxGeometry x="350" y="130" width="100" height="30" as="geometry" />
        </mxCell>
        <mxCell id="-QWmshcvh4NoUz7wuo3l-35" value="&lt;font style=&quot;font-size: 17px;&quot;&gt;Alumni&lt;/font&gt;" style="text;html=1;align=center;verticalAlign=middle;whiteSpace=wrap;rounded=0;fontSize=20;" vertex="1" parent="7026571954dc6520-1">
          <mxGeometry x="260" y="130" width="100" height="30" as="geometry" />
        </mxCell>
        <mxCell id="-QWmshcvh4NoUz7wuo3l-37" value="" style="verticalLabelPosition=bottom;shadow=0;dashed=0;align=center;html=1;verticalAlign=top;strokeWidth=1;shape=mxgraph.mockup.misc.mail2;strokeColor=#999999;" vertex="1" parent="7026571954dc6520-1">
          <mxGeometry x="755" y="129.21" width="30" height="20" as="geometry" />
        </mxCell>
        <mxCell id="-QWmshcvh4NoUz7wuo3l-38" value="" style="dashed=0;outlineConnect=0;html=1;align=center;labelPosition=center;verticalLabelPosition=bottom;verticalAlign=top;shape=mxgraph.weblogos.phone;fillColor=#36BE0F;strokeColor=none" vertex="1" parent="7026571954dc6520-1">
          <mxGeometry x="620" y="125.9" width="30" height="26.05" as="geometry" />
        </mxCell>
        <mxCell id="-QWmshcvh4NoUz7wuo3l-39" value="&lt;font style=&quot;font-size: 13px;&quot;&gt;Phone number&lt;/font&gt;" style="text;html=1;align=center;verticalAlign=middle;whiteSpace=wrap;rounded=0;fontSize=13;" vertex="1" parent="7026571954dc6520-1">
          <mxGeometry x="635" y="121.97" width="120" height="30" as="geometry" />
        </mxCell>
        <mxCell id="-QWmshcvh4NoUz7wuo3l-40" value="&lt;font style=&quot;font-size: 12px;&quot;&gt;Email&lt;/font&gt;" style="text;html=1;align=center;verticalAlign=middle;whiteSpace=wrap;rounded=0;fontSize=12;" vertex="1" parent="7026571954dc6520-1">
          <mxGeometry x="780" y="121.95" width="68" height="30" as="geometry" />
        </mxCell>
        <mxCell id="-QWmshcvh4NoUz7wuo3l-47" value="" style="ellipse;whiteSpace=wrap;html=1;aspect=fixed;labelBackgroundColor=#B3B3B3;fontColor=#333333;noLabel=1;fillColor=#f5f5f5;strokeColor=#666666;" vertex="1" parent="7026571954dc6520-1">
          <mxGeometry x="1007" y="123.95" width="30.52" height="30.52" as="geometry" />
        </mxCell>
        <mxCell id="-QWmshcvh4NoUz7wuo3l-51" value="" style="ellipse;whiteSpace=wrap;html=1;aspect=fixed;labelBackgroundColor=#B3B3B3;fontColor=#333333;noLabel=1;fillColor=#f5f5f5;strokeColor=#666666;" vertex="1" parent="7026571954dc6520-1">
          <mxGeometry x="967" y="123.94999999999999" width="30.52" height="30.52" as="geometry" />
        </mxCell>
        <mxCell id="-QWmshcvh4NoUz7wuo3l-52" value="" style="ellipse;whiteSpace=wrap;html=1;aspect=fixed;labelBackgroundColor=#B3B3B3;fontColor=#333333;noLabel=1;fillColor=#f5f5f5;strokeColor=#666666;" vertex="1" parent="7026571954dc6520-1">
          <mxGeometry x="927" y="123.94999999999999" width="30.52" height="30.52" as="geometry" />
        </mxCell>
        <mxCell id="-QWmshcvh4NoUz7wuo3l-53" value="" style="ellipse;whiteSpace=wrap;html=1;aspect=fixed;labelBackgroundColor=#B3B3B3;fontColor=#333333;noLabel=1;fillColor=#f5f5f5;strokeColor=#666666;" vertex="1" parent="7026571954dc6520-1">
          <mxGeometry x="889.48" y="123.94999999999999" width="30.52" height="30.52" as="geometry" />
        </mxCell>
        <mxCell id="-QWmshcvh4NoUz7wuo3l-54" value="" style="ellipse;whiteSpace=wrap;html=1;aspect=fixed;labelBackgroundColor=#B3B3B3;fontColor=#333333;noLabel=1;fillColor=#f5f5f5;strokeColor=#666666;" vertex="1" parent="7026571954dc6520-1">
          <mxGeometry x="848" y="123.94999999999999" width="30.52" height="30.52" as="geometry" />
        </mxCell>
      </root>
    </mxGraphModel>
  </diagram>
</mxfile>
